<?xml version="1.0" encoding="UTF-8" standalone="no"?>
<svg
   xmlns="http://www.w3.org/2000/svg"
   width="100"
   height="70"
   viewBox="0 0 137.31875 94.98542"
   version="1.1"
   id="svg8"
>
  <defs
     id="defs2" />
  <g
     id="layer1">
    <g
       id="g1126"
       transform="matrix(0.90526364,0,0,0.85594879,7.0836287,-49.897617)"
       style="stroke-width:1.13604">
      <g
         id="g1006"
         transform="translate(-157.28979)"
         style="stroke-width:1.13604">
        <g
           id="g900"
           transform="translate(-59.26369,-18.326282)"
           style="stroke-width:1.13604">
          <g
             id="g849"
             transform="translate(31.873767,7.5295694)"
             style="fill:#ff9955;fill-opacity:1;stroke-width:1.13604">
            <g
               aria-label="O"
               id="text844"
               style="font-style:normal;font-variant:normal;font-weight:bold;font-stretch:normal;font-size:66.0744px;line-height:1.25;font-family:C059;-inkscape-font-specification:'C059, Bold';font-variant-ligatures:normal;font-variant-caps:normal;font-variant-numeric:normal;font-variant-east-asian:normal;fill:#ff9955;fill-opacity:1;stroke:none;stroke-width:0.30057">
              <path
                 d="m 209.65584,86.361866 c -6.40922,0 -11.82732,1.850084 -16.12215,5.616325 -5.55025,4.757356 -8.85397,12.223759 -8.85397,19.954469 0,14.00777 10.3076,24.11716 24.64575,24.11716 6.80566,0 11.95946,-1.58579 16.38645,-5.15381 5.74847,-4.49306 8.85397,-11.29872 8.85397,-19.02942 0,-7.66464 -3.30372,-15.197117 -8.85397,-19.888399 -4.42699,-3.832316 -9.58079,-5.616325 -16.05608,-5.616325 z m 0.0661,3.435869 c 3.56802,0 6.34315,1.717935 8.2593,5.087729 2.18046,3.964464 3.3698,9.911156 3.3698,17.047196 0,13.4131 -4.09661,20.68129 -11.6291,20.68129 -3.83231,0 -6.60744,-1.65186 -8.45752,-5.08773 -2.18046,-4.09661 -3.36979,-9.84509 -3.36979,-16.84897 0,-7.13604 1.12326,-12.421991 3.36979,-16.188232 1.91616,-3.237646 4.55913,-4.691283 8.45752,-4.691283 z"
                 style="font-style:normal;font-variant:normal;font-weight:bold;font-stretch:normal;font-size:66.0744px;font-family:C059;-inkscape-font-specification:'C059, Bold';font-variant-ligatures:normal;font-variant-caps:normal;font-variant-numeric:normal;font-variant-east-asian:normal;fill:#ff9955;fill-opacity:1;stroke-width:0.30057"
                 id="path865" />
            </g>
            <path
               id="path831"
               style="fill:#ff9955;fill-opacity:1;stroke:none;stroke-width:0.30057px;stroke-linecap:butt;stroke-linejoin:miter;stroke-opacity:1"
               d="m 202.96366,92.205445 c -0.21278,0.18148 -3.04756,2.60502 -3.90984,3.67317 -0.89535,1.10911 -2.58124,3.62716 -2.58124,3.62716 0,0 -1.67164,3.196565 -2.1084,4.637445 -0.43677,1.44088 -1.17113,4.34143 -1.23662,6.14794 -0.0655,1.80652 -0.1748,3.92683 0.30748,6.10506 0.48228,2.17824 1.54747,5.46979 2.1363,6.60631 0.58883,1.13651 2.42884,4.27192 3.85248,5.7366 1.42364,1.46469 3.94638,3.62535 4.31188,3.81941 0.0385,0.0204 0.337,0.19259 0.43615,0.24856 -1.87763,-1.51075 -3.84683,-3.51696 -1.55184,-3.85403 3.75425,-0.55138 6.10453,2.18798 6.10453,2.18798 0,0 1.4081,1.00961 2.51406,3.47421 0.68294,1.52191 1.12369,3.64047 1.81023,5.85959 1.07208,3.46536 2.92661,8.84628 6.31021,9.74773 5.11016,1.36144 7.67217,-0.89949 9.80457,-2.73575 1.4446,-1.24399 2.49933,-2.63957 3.0117,-3.16829 1.88587,-1.94601 2.40788,-3.09729 2.98328,-3.85919 0.26602,-0.35224 0.68313,-1.2463 1.06505,-1.95957 0.69475,-1.29753 1.48157,-3.78582 1.48157,-3.78582 l -3.51865,2.74712 -4.50619,2.13579 c 0,0 -0.717,-0.0899 2.77038,-2.0221 3.78013,-2.0944 9.77459,-8.84804 9.77459,-8.84804 0,0 -2.10563,1.82781 -12.37392,8.51628 -10.2683,6.68848 -11.72593,-5.9674 -14.88901,-9.39995 -3.16308,-3.43256 -8.26823,-3.73414 -8.26823,-3.73414 0,0 -5.74327,0.93284 -7.86619,-1.12758 -2.12292,-2.0604 0.68173,0.27422 0.22721,-1.42879 -0.0844,-0.31611 -0.16508,-0.50007 -0.0419,-1.11436 0.15561,-0.77586 0.12088,-0.83772 0.26178,-0.92608 0.54491,-0.3417 0.64815,-0.44948 1.27885,-0.53714 2.02158,-0.281 3.7646,-0.41084 5.71545,-0.3701 1.1893,0.0248 2.15246,-0.63741 2.48977,-0.96945 0.65792,-0.64766 0.71813,-1.98395 0.42375,-2.75952 -0.36459,-0.9606 -0.3951,-1.10711 -0.38809,-1.58182 0.005,-0.2975 0.15418,-0.57518 0.31367,-0.69453 0.31132,-0.23297 0.86058,-0.32497 0.96739,-0.58446 0.053,-0.1288 0.16394,-0.51709 -0.014,-0.66249 -0.3641,-0.29762 -0.83061,-0.5514 -0.64802,-0.47646 0.33362,0.13693 0.55214,0.005 0.68419,-0.17208 0.19782,-0.26583 0.14005,-0.68678 0.14005,-0.68678 0,0 -0.0357,-0.0834 -0.5271,-0.41961 -0.49142,-0.33623 -0.093,-0.85422 -0.093,-0.85422 0,0 0.84923,-0.95003 1.23662,-1.55752 0.1284,-0.20146 0.0938,-0.35513 0.0729,-0.43409 -0.0247,-0.0935 -0.004,-0.32023 -0.31988,-0.52451 -0.45443,-0.2941 -1.32737,-0.49884 -2.07791,-0.82321 -1.3706,-0.59235 -2.67218,-1.25419 -2.67218,-1.25419 l -0.0935,-0.22737 -0.0481,-0.23461 0.14263,-0.15193 0.35657,-0.1726 0.62012,-0.20102 0.58549,-0.33641 0.3638,-0.29869 0.20877,-0.21033 0.0667,-0.12712 -0.0878,-0.12299 c -0.31174,-0.0987 -0.81908,0.0543 -0.81908,0.0543 -0.16429,0.0191 -0.48156,0.0629 -0.63355,0.0961 -0.57597,0.12586 -0.38329,0.0559 -0.59324,0.11213 -1.14046,0.30559 -0.29365,-2.933705 -0.31575,-2.713515 0,0 0.1255,-0.70397 0.0708,-2.80397 -0.0547,-2.1 -2.07171,-4.22041 -2.07171,-4.22041 -0.20003,-0.14716 -0.41744,-0.2745 -0.64595,-0.38603 z"
            />
          </g>
          <g
             id="g887"
             style="stroke-width:1.13604">
            <path
               id="path851"
               style="fill:#ff9955;fill-opacity:1;stroke:#000000;stroke-width:1.13603px;stroke-linecap:butt;stroke-linejoin:miter;stroke-opacity:0"
               d="m 906.90998,311.77088 -11.24775,16.03181 -10.3598,-11.16081 -7.32599,15.75787 -12.16078,-1.54345 6.3777,15.91714 c 0,0 11.07463,-20.41347 36.18555,-3.04297 1.10422,0.76385 1.13577,0.76711 1.89611,1.29228 0.035,-0.0117 0.56383,-0.41945 0.60045,-0.4299 -0.0215,-0.23292 -0.442,0.30132 -0.442,0.30132 0,0 12.01798,-6.09135 18.89075,1.15075 0.77434,0.81595 1.35593,1.48176 1.86671,2.00123 0.2169,-0.0323 0.36339,-0.0408 0.58775,-0.0683 -0.005,-0.006 0.78574,-0.0716 0.78574,-0.0716 l 6.66036,-14.26417 -8.71021,1.69982 -0.54832,-15.6994 -13.26387,9.97989 z"
               transform="scale(0.26458334)"
            />
            <path
               id="path871"
               style="opacity:1;fill:#ff9955;fill-opacity:1;stroke:#ff9955;stroke-width:0.450856;stroke-linecap:round;stroke-opacity:0;paint-order:markers fill stroke"
               d="m 229.01849,85.980438 a 0.87200636,0.87200636 0 0 1 -0.87201,0.872007 0.87200636,0.87200636 0 0 1 -0.872,-0.872007 0.87200636,0.87200636 0 0 1 0.872,-0.872006 0.87200636,0.87200636 0 0 1 0.87201,0.872006 z" />
            <path
               id="circle873"
               style="opacity:1;fill:#ff9955;fill-opacity:1;stroke:#ff9955;stroke-width:0.450856;stroke-linecap:round;stroke-opacity:0;paint-order:markers fill stroke"
               d="m 234.31767,81.740761 a 0.87200636,0.87200636 0 0 1 -0.87201,0.872006 0.87200636,0.87200636 0 0 1 -0.872,-0.872006 0.87200636,0.87200636 0 0 1 0.872,-0.872007 0.87200636,0.87200636 0 0 1 0.87201,0.872007 z" />
            <path
               id="circle875"
               style="opacity:1;fill:#ff9955;fill-opacity:1;stroke:#ff9955;stroke-width:0.450856;stroke-linecap:round;stroke-opacity:0;paint-order:markers fill stroke"
               d="m 240.85869,80.153801 a 0.87200636,0.87200636 0 0 1 -0.87201,0.872006 0.87200636,0.87200636 0 0 1 -0.87201,-0.872006 0.87200636,0.87200636 0 0 1 0.87201,-0.872006 0.87200636,0.87200636 0 0 1 0.87201,0.872006 z" />
            <path
               id="circle877"
               style="opacity:1;fill:#ff9955;fill-opacity:1;stroke:#ff9955;stroke-width:0.450856;stroke-linecap:round;stroke-opacity:0;paint-order:markers fill stroke"
               d="m 247.97004,82.733688 a 0.87200636,0.87200636 0 0 1 -0.872,0.872007 0.87200636,0.87200636 0 0 1 -0.87201,-0.872007 0.87200636,0.87200636 0 0 1 0.87201,-0.872006 0.87200636,0.87200636 0 0 1 0.872,0.872006 z" />
            <path
               id="circle879"
               style="opacity:1;fill:#ff9955;fill-opacity:1;stroke:#ff9955;stroke-width:0.450856;stroke-linecap:round;stroke-opacity:0;paint-order:markers fill stroke"
               d="m 250.80887,86.718239 a 0.87200636,0.87200636 0 0 1 -0.87201,0.872006 0.87200636,0.87200636 0 0 1 -0.87201,-0.872006 0.87200636,0.87200636 0 0 1 0.87201,-0.872007 0.87200636,0.87200636 0 0 1 0.87201,0.872007 z" />
          </g>
        </g>
        <g
           id="g978"
           style="stroke-width:1.13604;fill:#ff9955;">
          <g
             aria-label="u"
             id="text904"
             style="font-style:normal;font-variant:normal;font-weight:bold;font-stretch:normal;font-size:22.5778px;line-height:1.25;font-family:sans-serif;-inkscape-font-specification:'sans-serif, Bold';font-variant-ligatures:normal;font-variant-caps:normal;font-variant-numeric:normal;font-variant-east-asian:normal;fill:#ff9955;fill-opacity:1;stroke:none;stroke-width:0.30057">
            <path
               d="m 210.50617,118.03284 v -7.54063 h 3.96875 v 1.23473 q 0,1.00321 -0.011,2.52456 -0.011,1.51034 -0.011,2.01745 0,1.48829 0.0772,2.14975 0.0772,0.65043 0.26458,0.94809 0.24253,0.38585 0.62839,0.59531 0.39687,0.20946 0.90399,0.20946 1.23472,0 1.94028,-0.94809 0.70556,-0.94809 0.70556,-2.63481 v -6.09645 h 3.9467 v 12.34724 h -3.9467 v -1.78594 q -0.89297,1.08038 -1.89619,1.59852 -0.99219,0.50712 -2.19384,0.50712 -2.13871,0 -3.26319,-1.31189 -1.11346,-1.3119 -1.11346,-3.81442 z"
               style="font-style:normal;font-variant:normal;font-weight:bold;font-stretch:normal;font-size:22.5778px;font-family:sans-serif;-inkscape-font-specification:'sans-serif, Bold';font-variant-ligatures:normal;font-variant-caps:normal;font-variant-numeric:normal;font-variant-east-asian:normal;fill:#ff9955;fill-opacity:1;stroke-width:0.30057"
               id="path873" />
          </g>
          <g
             aria-label="eenofkings"
             id="text908"
             style="font-style:normal;font-variant:normal;font-weight:bold;font-stretch:normal;font-size:11.2889px;line-height:1.25;font-family:sans-serif;-inkscape-font-specification:'sans-serif, Bold';font-variant-ligatures:normal;font-variant-caps:normal;font-variant-numeric:normal;font-variant-east-asian:normal;fill:#ff9955;fill-opacity:1;stroke:none;stroke-width:0.30057">
            <path
               d="m 231.07979,119.83802 v 0.56224 h -4.61368 q 0.0717,0.69454 0.50161,1.0418 0.42994,0.34727 1.20165,0.34727 0.62287,0 1.2733,-0.1819 0.65595,-0.18742 1.34497,-0.56224 v 1.52135 q -0.70004,0.26458 -1.40009,0.39688 -0.70004,0.1378 -1.40009,0.1378 -1.67569,0 -2.60725,-0.84887 -0.92604,-0.85439 -0.92604,-2.39228 0,-1.51033 0.90951,-2.37574 0.91502,-0.86541 2.51354,-0.86541 1.45521,0 2.32613,0.87644 0.87644,0.87643 0.87644,2.34266 z m -2.02848,-0.65594 q 0,-0.56224 -0.33073,-0.904 -0.32522,-0.34726 -0.85438,-0.34726 -0.57327,0 -0.93156,0.32521 -0.35829,0.31971 -0.44648,0.92605 z"
               style="font-style:normal;font-variant:normal;font-weight:bold;font-stretch:normal;font-size:11.2889px;font-family:sans-serif;-inkscape-font-specification:'sans-serif, Bold';font-variant-ligatures:normal;font-variant-caps:normal;font-variant-numeric:normal;font-variant-east-asian:normal;fill:#ff9955;fill-opacity:1;stroke-width:0.30057"
               id="path944" />
            <path
               d="m 238.73617,119.83802 v 0.56224 h -4.61367 q 0.0717,0.69454 0.5016,1.0418 0.42995,0.34727 1.20165,0.34727 0.62288,0 1.27331,-0.1819 0.65595,-0.18742 1.34497,-0.56224 v 1.52135 q -0.70005,0.26458 -1.40009,0.39688 -0.70004,0.1378 -1.40009,0.1378 -1.67569,0 -2.60725,-0.84887 -0.92604,-0.85439 -0.92604,-2.39228 0,-1.51033 0.9095,-2.37574 0.91502,-0.86541 2.51355,-0.86541 1.45521,0 2.32613,0.87644 0.87643,0.87643 0.87643,2.34266 z m -2.02847,-0.65594 q 0,-0.56224 -0.33073,-0.904 -0.32522,-0.34726 -0.85439,-0.34726 -0.57326,0 -0.93155,0.32521 -0.35829,0.31971 -0.44648,0.92605 z"
               style="font-style:normal;font-variant:normal;font-weight:bold;font-stretch:normal;font-size:11.2889px;font-family:sans-serif;-inkscape-font-specification:'sans-serif, Bold';font-variant-ligatures:normal;font-variant-caps:normal;font-variant-numeric:normal;font-variant-east-asian:normal;fill:#ff9955;fill-opacity:1;stroke-width:0.30057"
               id="path946" />
            <path
               d="m 246.43666,119.18208 v 3.75929 h -1.98438 v -0.61185 -2.2655 q 0,-0.79926 -0.0386,-1.10243 -0.0331,-0.30317 -0.12127,-0.44649 -0.11576,-0.19292 -0.31419,-0.29765 -0.19844,-0.11024 -0.452,-0.11024 -0.61736,0 -0.97014,0.47955 -0.35278,0.47405 -0.35278,1.31741 v 3.0372 h -1.97335 v -6.17362 h 1.97335 v 0.90399 q 0.44649,-0.54019 0.94809,-0.79375 0.50161,-0.25907 1.10795,-0.25907 1.06935,0 1.62057,0.65595 0.55673,0.65595 0.55673,1.90721 z"
               style="font-style:normal;font-variant:normal;font-weight:bold;font-stretch:normal;font-size:11.2889px;font-family:sans-serif;-inkscape-font-specification:'sans-serif, Bold';font-variant-ligatures:normal;font-variant-caps:normal;font-variant-numeric:normal;font-variant-east-asian:normal;fill:#ff9955;fill-opacity:1;stroke-width:0.30057"
               id="path948" />
            <path
               d="m 251.20468,118.03003 q -0.65595,0 -1.00322,0.47405 -0.34175,0.46853 -0.34175,1.35599 0,0.88746 0.34175,1.3615 0.34727,0.46854 1.00322,0.46854 0.64492,0 0.98667,-0.46854 0.34176,-0.47404 0.34176,-1.3615 0,-0.88746 -0.34176,-1.35599 -0.34175,-0.47405 -0.98667,-0.47405 z m 0,-1.41111 q 1.59301,0 2.48598,0.8599 0.89848,0.8599 0.89848,2.38125 0,1.52136 -0.89848,2.38125 -0.89297,0.8599 -2.48598,0.8599 -1.59853,0 -2.50252,-0.8599 -0.89849,-0.85989 -0.89849,-2.38125 0,-1.52135 0.89849,-2.38125 0.90399,-0.8599 2.50252,-0.8599 z"
               style="font-style:normal;font-variant:normal;font-weight:bold;font-stretch:normal;font-size:11.2889px;font-family:sans-serif;-inkscape-font-specification:'sans-serif, Bold';font-variant-ligatures:normal;font-variant-caps:normal;font-variant-numeric:normal;font-variant-east-asian:normal;fill:#ff9955;fill-opacity:1;stroke-width:0.30057"
               id="path950" />
            <path
               d="m 260.08476,114.36445 v 1.29536 h -1.0914 q -0.41893,0 -0.58429,0.15434 -0.16537,0.14883 -0.16537,0.52365 v 0.42995 h 1.68672 v 1.41111 h -1.68672 v 4.76251 h -1.97335 v -4.76251 h -0.98116 v -1.41111 h 0.98116 v -0.42995 q 0,-1.00872 0.56224,-1.48828 0.56224,-0.48507 1.74184,-0.48507 z"
               style="font-style:normal;font-variant:normal;font-weight:bold;font-stretch:normal;font-size:11.2889px;font-family:sans-serif;-inkscape-font-specification:'sans-serif, Bold';font-variant-ligatures:normal;font-variant-caps:normal;font-variant-numeric:normal;font-variant-east-asian:normal;fill:#ff9955;fill-opacity:1;stroke-width:0.30057"
               id="path952" />
            <path
               d="m 260.93363,114.36445 h 1.97336 v 4.6688 l 2.27101,-2.2655 h 2.29305 l -3.01515,2.83325 3.25218,3.34037 h -2.39228 l -2.40881,-2.57418 v 2.57418 h -1.97336 z"
               style="font-style:normal;font-variant:normal;font-weight:bold;font-stretch:normal;font-size:11.2889px;font-family:sans-serif;-inkscape-font-specification:'sans-serif, Bold';font-variant-ligatures:normal;font-variant-caps:normal;font-variant-numeric:normal;font-variant-east-asian:normal;fill:#ff9955;fill-opacity:1;stroke-width:0.30057"
               id="path954" />
            <path
               d="m 268.44119,116.76775 h 1.97336 v 6.17362 h -1.97336 z m 0,-2.4033 h 1.97336 v 1.60955 h -1.97336 z"
               style="font-style:normal;font-variant:normal;font-weight:bold;font-stretch:normal;font-size:11.2889px;font-family:sans-serif;-inkscape-font-specification:'sans-serif, Bold';font-variant-ligatures:normal;font-variant-caps:normal;font-variant-numeric:normal;font-variant-east-asian:normal;fill:#ff9955;fill-opacity:1;stroke-width:0.30057"
               id="path956" />
            <path
               d="m 278.51742,119.18208 v 3.75929 h -1.98438 v -0.61185 -2.2655 q 0,-0.79926 -0.0386,-1.10243 -0.0331,-0.30317 -0.12127,-0.44649 -0.11576,-0.19292 -0.31419,-0.29765 -0.19844,-0.11024 -0.452,-0.11024 -0.61736,0 -0.97014,0.47955 -0.35278,0.47405 -0.35278,1.31741 v 3.0372 h -1.97335 v -6.17362 h 1.97335 v 0.90399 q 0.44649,-0.54019 0.94809,-0.79375 0.50161,-0.25907 1.10795,-0.25907 1.06935,0 1.62057,0.65595 0.55673,0.65595 0.55673,1.90721 z"
               style="font-style:normal;font-variant:normal;font-weight:bold;font-stretch:normal;font-size:11.2889px;font-family:sans-serif;-inkscape-font-specification:'sans-serif, Bold';font-variant-ligatures:normal;font-variant-caps:normal;font-variant-numeric:normal;font-variant-east-asian:normal;fill:#ff9955;fill-opacity:1;stroke-width:0.30057"
               id="path958" />
            <path
               d="m 284.54772,121.89406 q -0.4079,0.54019 -0.89848,0.79375 -0.49058,0.25356 -1.13551,0.25356 -1.12999,0 -1.86862,-0.88746 -0.73863,-0.89297 -0.73863,-2.27101 0,-1.38355 0.73863,-2.2655 0.73863,-0.88745 1.86862,-0.88745 0.64493,0 1.13551,0.25356 0.49058,0.25356 0.89848,0.79926 v -0.91502 h 1.98438 v 5.55074 q 0,1.48829 -0.94258,2.27101 -0.93707,0.78824 -2.72301,0.78824 -0.57877,0 -1.11897,-0.0882 -0.54019,-0.0882 -1.08589,-0.2701 v -1.53789 q 0.51814,0.29766 1.01424,0.44097 0.49609,0.14883 0.9977,0.14883 0.97014,0 1.42213,-0.42444 0.452,-0.42443 0.452,-1.32843 z m -1.30087,-3.84198 q -0.61185,0 -0.9536,0.452 -0.34176,0.452 -0.34176,1.27882 0,0.84887 0.33073,1.28985 0.33073,0.43546 0.96463,0.43546 0.61736,0 0.95912,-0.452 0.34175,-0.452 0.34175,-1.27331 0,-0.82682 -0.34175,-1.27882 -0.34176,-0.452 -0.95912,-0.452 z"
               style="font-style:normal;font-variant:normal;font-weight:bold;font-stretch:normal;font-size:11.2889px;font-family:sans-serif;-inkscape-font-specification:'sans-serif, Bold';font-variant-ligatures:normal;font-variant-caps:normal;font-variant-numeric:normal;font-variant-east-asian:normal;fill:#ff9955;fill-opacity:1;stroke-width:0.30057"
               id="path960" />
            <path
               d="m 293.25142,116.96068 v 1.4993 q -0.6339,-0.26458 -1.2237,-0.39687 -0.5898,-0.13229 -1.11346,-0.13229 -0.56224,0 -0.83784,0.14331 -0.2701,0.13781 -0.2701,0.42995 0,0.23702 0.20395,0.3638 0.20946,0.12678 0.74414,0.18742 l 0.34727,0.0496 q 1.51584,0.19292 2.0395,0.63389 0.52365,0.44098 0.52365,1.38356 0,0.98667 -0.7276,1.48277 -0.72761,0.49609 -2.17179,0.49609 -0.61185,0 -1.2678,-0.0992 -0.65043,-0.0937 -1.33945,-0.28663 v -1.49931 q 0.5898,0.28663 1.20716,0.42995 0.62287,0.14332 1.26228,0.14332 0.57878,0 0.87092,-0.15986 0.29215,-0.15985 0.29215,-0.47404 0,-0.26458 -0.20395,-0.39136 -0.19844,-0.1323 -0.79926,-0.20395 l -0.34727,-0.0441 q -1.31741,-0.16537 -1.84657,-0.61185 -0.52917,-0.44649 -0.52917,-1.35599 0,-0.98117 0.67248,-1.45521 0.67249,-0.47405 2.06155,-0.47405 0.5457,0 1.14653,0.0827 0.60082,0.0827 1.30638,0.25908 z"
               style="font-style:normal;font-variant:normal;font-weight:bold;font-stretch:normal;font-size:11.2889px;font-family:sans-serif;-inkscape-font-specification:'sans-serif, Bold';font-variant-ligatures:normal;font-variant-caps:normal;font-variant-numeric:normal;font-variant-east-asian:normal;fill:#ff9955;fill-opacity:1;stroke-width:0.30057"
               id="path962" />
          </g>
        </g>
      </g>
      <g
         id="g1020"
         transform="matrix(0.5766523,9.6136516e-5,9.5877942e-5,0.57587355,-72.325305,46.887934)"
         style="stroke-width:1.9714">
        <path
           id="path1008"
           style="fill:#241c1c;stroke:#000000;stroke-width:0.521589px;stroke-linecap:butt;stroke-linejoin:miter;stroke-opacity:1"
           d="m 215.01066,129.10809 -0.63717,0.29559 -18.14204,20.44837 -1.05782,2.46858 -14.84922,6.26525 c 0,0 -1.72474,-0.76047 -3.64009,0.0191 -0.87168,0.35479 -1.75017,1.22396 -2.2779,1.98903 -0.63187,0.91603 -0.82889,1.71359 -0.82889,1.71359 l -0.8909,-0.15451 -1.68465,-0.52504 c 0,0 -0.66944,-1.16257 -0.48059,-2.1208 0.18885,-0.95822 -1.28674,0.86713 -1.28674,0.86713 l 1.0883,2.5647 1.98903,0.74104 c 0,0 0.0523,1.50602 0.96221,2.75332 0.60017,0.82272 1.19486,1.71591 3.74034,1.33946 2.23082,-0.32991 3.31288,-1.97397 3.93206,-3.18534 1.15848,-2.26645 0.6351,-4.29793 0.6351,-4.29793 l -0.25424,-1.12706 13.40848,-3.95583 2.15233,-0.0858 0.45371,0.96428 -4.5315,10.61692 c 0,0 -1.63824,-0.19026 -3.10059,1.05679 -1.46235,1.24705 -2.66644,2.06142 -2.50424,5.90454 0.16643,3.94311 3.40181,4.80488 4.12533,4.80488 0.72351,0 3.60049,-0.58989 4.48138,-3.73052 0.93179,-3.32211 -0.68936,-6.43062 -0.68936,-6.43062 l -1.11105,-1.00666 4.5527,-9.48934 2.68097,-3.00447 29.43593,-17.20928 h -1.04541 l -28.96154,12.6876 z m -36.52335,30.02401 a 2.7069654,4.373333 30.169434 0 1 0.92553,0.23358 2.7069654,4.373333 30.169434 0 1 0.15451,5.13508 2.7069654,4.373333 30.169434 0 1 -4.53771,2.43396 2.7069654,4.373333 30.169434 0 1 -0.15451,-5.13508 2.7069654,4.373333 30.169434 0 1 3.61218,-2.66754 z m 14.05186,9.44904 a 2.860606,4.3728133 17.437457 0 1 0.50436,0.0574 2.860606,4.3728133 17.437457 0 1 1.57303,4.89737 2.860606,4.3728133 17.437457 0 1 -3.98167,3.50625 2.860606,4.3728133 17.437457 0 1 -1.57355,-4.89789 2.860606,4.3728133 17.437457 0 1 3.47783,-3.56309 z" />
        <path
           id="path1016"
           style="opacity:1;fill:#cccccc;fill-opacity:1;stroke:#ff9955;stroke-width:0.782387;stroke-linecap:round;stroke-opacity:0;paint-order:markers fill stroke"
           d="m 199.35092,152.76231 a 0.69901603,0.69901603 0 0 1 -0.69902,0.69902 0.69901603,0.69901603 0 0 1 -0.69901,-0.69902 0.69901603,0.69901603 0 0 1 0.69901,-0.69901 0.69901603,0.69901603 0 0 1 0.69902,0.69901 z" />
      </g>
      <g
         aria-label="Hair"
         id="text1056"
         style="fill:#FFCC1D;font-style:normal;font-variant:normal;font-weight:bold;font-stretch:normal;font-size:21.7106px;line-height:1.25;font-family:sans-serif;-inkscape-font-specification:'sans-serif, Bold';font-variant-ligatures:normal;font-variant-caps:normal;font-variant-numeric:normal;font-variant-east-asian:normal;fill:#fff90c;fill-opacity:1;stroke:none;stroke-width:0.30057">
        <path
           d="M 0.22630096,139.57821 H 4.3076393 v 6.0319 h 6.0212997 v -6.0319 h 4.081338 v 15.82711 h -4.081338 v -6.71036 H 4.3076393 v 6.71036 H 0.22630096 Z"
           style="font-style:normal;font-variant:normal;font-weight:bold;font-stretch:normal;font-size:21.7106px;font-family:sans-serif;-inkscape-font-specification:'sans-serif, Bold';font-variant-ligatures:normal;font-variant-caps:normal;font-variant-numeric:normal;font-variant-east-asian:normal;fill:#fff90c;fill-opacity:1;stroke-width:0.30057"
           id="path877" />
        <path
           d="m 23.548235,150.06248 q -1.187299,0 -1.791549,0.40283 -0.593649,0.40283 -0.593649,1.1873 0,0.72086 0.47704,1.13429 0.48764,0.40284 1.346311,0.40284 1.070689,0 1.80215,-0.76327 0.73146,-0.77386 0.73146,-1.92936 v -0.43463 z m 5.79868,-1.43112 v 6.77396 h -3.826917 v -1.75975 q -0.763263,1.08129 -1.717342,1.57953 -0.954079,0.48764 -2.321593,0.48764 -1.844553,0 -3.000048,-1.07068 -1.144895,-1.08129 -1.144895,-2.79864 0,-2.08837 1.431118,-3.06365 1.44172,-0.97528 4.515975,-0.97528 h 2.236785 v -0.29683 q 0,-0.90107 -0.710259,-1.3145 -0.710259,-0.42404 -2.215583,-0.42404 -1.219101,0 -2.268588,0.24382 -1.049487,0.24382 -1.950562,0.73146 v -2.89404 q 1.219101,-0.29682 2.448803,-0.44524 1.229702,-0.15901 2.459404,-0.15901 3.212066,0 4.632584,1.27211 1.431118,1.2615 1.431118,4.11314 z"
           style="font-style:normal;font-variant:normal;font-weight:bold;font-stretch:normal;font-size:21.7106px;font-family:sans-serif;-inkscape-font-specification:'sans-serif, Bold';font-variant-ligatures:normal;font-variant-caps:normal;font-variant-numeric:normal;font-variant-east-asian:normal;fill:#fff90c;fill-opacity:1;stroke-width:0.30057"
           id="path879" />
        <path
           d="m 32.877007,143.53233 h 3.795115 v 11.87299 h -3.795115 z m 0,-4.62198 h 3.795115 v 3.09546 h -3.795115 z"
           style="font-style:normal;font-variant:normal;font-weight:bold;font-stretch:normal;font-size:21.7106px;font-family:sans-serif;-inkscape-font-specification:'sans-serif, Bold';font-variant-ligatures:normal;font-variant-caps:normal;font-variant-numeric:normal;font-variant-east-asian:normal;fill:#fff90c;fill-opacity:1;stroke-width:0.30057"
           id="path881" />
        <path
           d="m 49.138756,146.7656 q -0.498241,-0.23322 -0.996482,-0.33923 -0.487641,-0.1166 -0.985882,-0.1166 -1.462921,0 -2.257987,0.94347 -0.784465,0.93288 -0.784465,2.68203 v 5.47005 h -3.795115 v -11.87299 h 3.795115 v 1.95057 q 0.731461,-1.1661 1.674939,-1.69614 0.954079,-0.54065 2.279189,-0.54065 0.190816,0 0.413434,0.0212 0.222618,0.0106 0.646654,0.0636 z"
           style="font-style:normal;font-variant:normal;font-weight:bold;font-stretch:normal;font-size:21.7106px;font-family:sans-serif;-inkscape-font-specification:'sans-serif, Bold';font-variant-ligatures:normal;font-variant-caps:normal;font-variant-numeric:normal;font-variant-east-asian:normal;fill:#fff90c;fill-opacity:1;stroke-width:0.30057"
           id="path883" />
      </g>
      <g
         aria-label="By Estelle"
         id="text1060"
         style="fill:#ff9955;font-style:normal;font-variant:normal;font-weight:normal;font-stretch:normal;font-size:19.2205px;line-height:1.25;font-family:Parisienne;-inkscape-font-specification:'Parisienne, Normal';font-variant-ligatures:normal;font-variant-caps:normal;font-variant-numeric:normal;font-variant-east-asian:normal;fill:#ff9955;fill-opacity:1;stroke:none;stroke-width:0.30057">
        <path
           d="m 66.121963,128.46615 q -0.150161,0.1877 -0.290936,0.36601 -0.13139,0.16893 -0.26278,0.35663 0.947886,0.34725 1.529757,0.86342 0.58187,0.50679 0.900961,1.0699 0.31909,0.55371 0.422325,1.09804 0.11262,0.53495 0.11262,0.92912 0,0.55371 -0.1877,1.0605 -0.178315,0.49741 -0.488021,0.91035 -0.30032,0.41294 -0.703875,0.72265 -0.403556,0.30032 -0.844651,0.45986 0.910346,0.7508 1.351441,1.67053 0.450481,0.91973 0.450481,1.85823 0,0.78835 -0.328476,1.49222 -0.31909,0.70388 -0.872806,1.22944 -0.553715,0.52556 -1.313901,0.83526 -0.750801,0.30971 -1.604837,0.30971 -0.741416,0 -1.370211,-0.24401 -0.619411,-0.23463 -1.116816,-0.64757 -0.488021,-0.41294 -0.854036,-0.97604 -0.356631,-0.5631 -0.563101,-1.20128 l 0.46925,-0.14077 q 0.347246,1.1262 1.144972,1.73622 0.797726,0.61941 1.923927,0.61941 0.694491,0 1.323286,-0.26278 0.638181,-0.25339 1.116816,-0.69449 0.478636,-0.45048 0.760186,-1.05112 0.281551,-0.61002 0.281551,-1.3139 0,-0.47864 -0.131391,-0.91035 -0.13139,-0.43171 -0.347245,-0.81649 -0.215855,-0.38479 -0.48802,-0.70388 -0.262781,-0.32847 -0.544331,-0.58187 -0.253395,0.0469 -0.506791,0.0751 -0.253395,0.0282 -0.497405,0.0282 -0.33786,0 -0.694491,-0.0469 -0.347245,-0.0563 -0.638181,-0.15954 -0.28155,-0.10324 -0.46925,-0.27217 -0.178315,-0.16893 -0.178315,-0.41294 0,-0.0563 0.02815,-0.15954 0.02815,-0.11263 0.11262,-0.21586 0.09385,-0.10324 0.272165,-0.17832 0.178315,-0.0845 0.488021,-0.0845 0.290935,0 0.58187,0.0657 0.300321,0.0657 0.572486,0.17832 0.272165,0.10323 0.525561,0.24401 0.253395,0.13139 0.459865,0.27217 0.33786,-0.15016 0.675721,-0.40356 0.347245,-0.26278 0.628795,-0.63818 0.281551,-0.3754 0.459866,-0.86342 0.178315,-0.48802 0.178315,-1.09805 0,-1.06989 -0.591256,-1.92393 -0.591255,-0.85403 -1.754996,-1.30451 -0.563101,0.78834 -1.051122,1.5673 -0.48802,0.77895 -0.910346,1.55791 -0.422325,0.77895 -0.797725,1.55791 -0.366016,0.77895 -0.703876,1.57668 -0.778956,1.82069 -1.520372,3.11582 -0.741416,1.28575 -1.586067,2.10225 -0.835265,0.81649 -1.830077,1.19189 -0.985426,0.38479 -2.261787,0.38479 -0.985426,0 -1.698687,-0.32848 -0.713261,-0.31909 -1.173126,-0.88219 -0.459866,-0.5631 -0.685106,-1.30451 -0.215855,-0.75081 -0.215855,-1.59546 0,-0.9385 0.30032,-1.93331 0.300321,-1.00419 0.891576,-1.99901 0.375401,-0.62879 0.929116,-1.30451 0.553716,-0.68511 1.266977,-1.34206 0.71326,-0.66633 1.586066,-1.25759 0.882191,-0.60064 1.895772,-1.04174 1.022966,-0.45048 2.177323,-0.71326 1.163741,-0.27216 2.449487,-0.27216 0.788341,0 1.435907,0.0845 0.656951,0.0751 1.210666,0.22524 0.215856,-0.21585 0.431711,-0.43171 0.22524,-0.21585 0.459865,-0.43171 z m -3.735235,3.89478 q 0.497406,-0.82588 1.032352,-1.54853 0.54433,-0.73203 1.163741,-1.40775 -0.356631,-0.0845 -0.760186,-0.13139 -0.39417,-0.0469 -0.835266,-0.0469 -1.417136,0 -2.796733,0.39417 -1.370211,0.38479 -2.618418,1.07928 -1.238821,0.69449 -2.299327,1.65176 -1.060506,0.95727 -1.839462,2.08347 -0.769571,1.11682 -1.210667,2.36503 -0.43171,1.2482 -0.43171,2.53395 0,0.63818 0.16893,1.16374 0.178315,0.51618 0.525561,0.89158 0.347245,0.36601 0.854036,0.57248 0.516175,0.19709 1.182511,0.19709 1.116816,0 1.952082,-0.41294 0.835266,-0.42233 1.482832,-1.14497 0.65695,-0.72265 1.182511,-1.67992 0.525561,-0.96666 1.022966,-2.05532 0.506791,-1.08866 1.032351,-2.24302 0.525561,-1.15435 1.191896,-2.26178 z m 2.627803,3.66954 q -0.140775,-0.10324 -0.33786,-0.1877 -0.1877,-0.0939 -0.39417,-0.15016 -0.206471,-0.0657 -0.412941,-0.10324 -0.20647,-0.0375 -0.35663,-0.0375 -0.262781,0 -0.337861,0.0657 -0.06569,0.0563 -0.06569,0.10323 0,0.0845 0.122005,0.15016 0.131391,0.0657 0.319091,0.12201 0.197085,0.0469 0.43171,0.0751 0.234625,0.0282 0.459866,0.0282 0.103235,0 0.234625,-0.009 0.13139,-0.009 0.33786,-0.0563 z"
           style="font-style:normal;font-variant:normal;font-weight:normal;font-stretch:normal;font-size:19.2205px;font-family:Parisienne;-inkscape-font-specification:'Parisienne, Normal';font-variant-ligatures:normal;font-variant-caps:normal;font-variant-numeric:normal;font-variant-east-asian:normal;fill:#ff9955;fill-opacity:1;stroke-width:0.30057"
           id="path886" />
        <path
           d="m 73.911521,139.86893 q -0.366015,0.40356 -0.741416,0.75081 -0.3754,0.33786 -0.741416,0.59125 -0.366015,0.2534 -0.722645,0.40356 -0.347246,0.14077 -0.675721,0.14077 -0.366015,0 -0.666336,-0.13139 -0.290935,-0.14077 -0.50679,-0.39417 -0.206471,-0.25339 -0.319091,-0.60064 -0.11262,-0.34724 -0.11262,-0.76957 0,-0.5631 0.234625,-1.17313 0.234626,-0.61002 0.600641,-1.18251 0.375401,-0.58187 0.825881,-1.09804 0.459866,-0.51618 0.891576,-0.89158 l 0.403555,0.28155 q -0.11262,0.15955 -0.309705,0.4411 -0.197085,0.28155 -0.422325,0.65695 -0.225241,0.36601 -0.459866,0.79772 -0.22524,0.43171 -0.41294,0.88219 -0.187701,0.45048 -0.309706,0.90096 -0.11262,0.45048 -0.11262,0.84466 0,0.1877 0.02815,0.36601 0.03754,0.16893 0.11262,0.30032 0.08446,0.13139 0.215856,0.20647 0.13139,0.0751 0.33786,0.0751 0.328475,0 0.713261,-0.19708 0.39417,-0.20647 0.807111,-0.55372 0.422325,-0.35663 0.854036,-0.82588 0.441095,-0.46925 0.863421,-1.0042 0.422325,-0.53494 0.816495,-1.09804 0.394171,-0.57249 0.732031,-1.1262 0.300321,-0.49741 0.600641,-0.99482 0.30032,-0.50679 0.60064,-0.98542 l 0.441096,0.22524 q -0.0094,0.0188 -0.178315,0.35663 -0.159545,0.32847 -0.431711,0.90096 -0.272165,0.5631 -0.63818,1.3139 -0.356631,0.74142 -0.760186,1.58607 -0.403556,0.83526 -0.825881,1.71746 -0.412941,0.88219 -0.807111,1.71745 1.323286,-0.73203 2.393178,-1.73622 1.079276,-1.0042 1.848847,-2.10225 l 0.347245,0.26278 q -0.816496,1.24821 -2.027162,2.30872 -1.210667,1.05112 -2.918738,2.01777 -0.778956,1.67053 -1.529757,3.05013 -0.741416,1.3796 -1.492217,2.36502 -0.741415,0.98543 -1.482831,1.52038 -0.750801,0.54433 -1.520372,0.54433 -0.50679,0 -0.844651,-0.33786 -0.33786,-0.33786 -0.33786,-0.96666 0,-0.52556 0.234625,-1.07928 0.234625,-0.55371 0.647566,-1.11681 0.41294,-0.55372 0.985426,-1.10743 0.5631,-0.54433 1.238821,-1.05112 0.666336,-0.5068 1.398367,-0.96666 0.741415,-0.45987 1.501601,-0.84465 0.197086,-0.41294 0.422326,-0.87281 0.22524,-0.45048 0.441095,-0.8728 0.215855,-0.43171 0.412941,-0.80711 0.20647,-0.38479 0.35663,-0.63819 z m -2.064702,4.10125 q -1.079276,0.66634 -2.008392,1.41714 -0.919731,0.76019 -1.595452,1.49222 -0.685106,0.74141 -1.069891,1.38898 -0.384786,0.64756 -0.384786,1.09805 0,0.30032 0.178316,0.47863 0.16893,0.17832 0.441095,0.17832 0.366015,0 0.760186,-0.2534 0.384785,-0.24401 0.778956,-0.67572 0.384785,-0.43171 0.769571,-1.02297 0.384785,-0.58187 0.7508,-1.25759 0.375401,-0.66633 0.722646,-1.39836 0.347246,-0.72265 0.656951,-1.4453 z"
           style="font-style:normal;font-variant:normal;font-weight:normal;font-stretch:normal;font-size:19.2205px;font-family:Parisienne;-inkscape-font-specification:'Parisienne, Normal';font-variant-ligatures:normal;font-variant-caps:normal;font-variant-numeric:normal;font-variant-east-asian:normal;fill:#ff9955;fill-opacity:1;stroke-width:0.30057"
           id="path888" />
        <path
           d="m 92.831703,133.20558 q 0.02815,0.009 0.07508,0.009 h 0.22524 q 0.732031,0 1.473447,-0.19708 0.741415,-0.19709 1.342056,-0.54433 0.600641,-0.35663 0.976041,-0.84465 0.3754,-0.49741 0.3754,-1.08867 0,-0.31909 -0.140775,-0.5631 -0.140775,-0.25339 -0.39417,-0.42232 -0.24401,-0.16893 -0.600641,-0.2534 -0.347245,-0.0939 -0.769571,-0.0939 -0.741415,0 -1.445291,0.1877 -0.703876,0.1877 -1.323287,0.51618 -0.61941,0.31909 -1.135586,0.76018 -0.516175,0.43172 -0.891576,0.94789 -0.3754,0.50679 -0.58187,1.06051 -0.206471,0.55371 -0.206471,1.10743 0,0.55371 0.206471,1.05112 0.647565,0.0188 1.210666,0.0939 0.5631,0.0751 0.976041,0.23462 0.41294,0.15016 0.647566,0.39418 0.234625,0.24401 0.234625,0.59125 0,0.3754 -0.28155,0.57249 -0.281551,0.19708 -0.703876,0.19708 -0.337861,0 -0.694491,-0.11262 -0.35663,-0.11262 -0.694491,-0.3097 -0.328475,-0.20647 -0.63818,-0.48802 -0.300321,-0.29094 -0.544331,-0.63819 -1.041736,0.0845 -1.933312,0.48803 -0.882191,0.39417 -1.529757,1.03235 -0.63818,0.62879 -1.004196,1.45467 -0.366015,0.8165 -0.366015,1.72684 0,0.74142 0.24401,1.34206 0.253395,0.59126 0.741416,1.01358 0.497405,0.42233 1.229436,0.64757 0.741416,0.22524 1.708072,0.22524 1.069891,0 2.027162,-0.32848 0.966656,-0.31909 1.783152,-0.81649 0.816496,-0.49741 1.482832,-1.08866 0.666335,-0.60064 1.154356,-1.13559 0.497406,-0.53495 0.797726,-0.9385 0.30032,-0.41294 0.39417,-0.53495 l 0.337861,0.26278 q -0.215856,0.30971 -0.581871,0.8165 -0.366015,0.4974 -0.891576,1.06051 -0.516175,0.5631 -1.201281,1.13558 -0.675721,0.5631 -1.520372,1.02297 -0.835266,0.45986 -1.830077,0.74141 -0.994811,0.29094 -2.149167,0.29094 -1.266977,0 -2.186708,-0.31909 -0.919731,-0.31909 -1.529756,-0.86342 -0.600641,-0.53495 -0.891576,-1.23882 -0.290936,-0.71326 -0.290936,-1.50161 0,-0.55371 0.140776,-1.1262 0.140775,-0.57248 0.43171,-1.11681 0.290935,-0.54433 0.750801,-1.03235 0.459865,-0.48802 1.088661,-0.86342 0.628796,-0.37541 1.445292,-0.61003 0.816496,-0.23463 1.830077,-0.28155 -0.168931,-0.33786 -0.262781,-0.70388 -0.09385,-0.3754 -0.09385,-0.76957 0,-0.72264 0.244011,-1.36082 0.24401,-0.64757 0.666335,-1.18252 0.431711,-0.54433 1.004196,-0.96665 0.581871,-0.42233 1.238822,-0.71326 0.65695,-0.30032 1.360826,-0.45048 0.713261,-0.15955 1.407752,-0.15955 0.71326,0 1.266976,0.15016 0.563101,0.14078 0.947886,0.40356 0.384786,0.26278 0.591256,0.63818 0.20647,0.36601 0.20647,0.80711 0,0.48802 -0.20647,0.91973 -0.197085,0.43171 -0.544331,0.78834 -0.33786,0.34725 -0.797726,0.6288 -0.45048,0.27216 -0.966656,0.45986 -0.50679,0.1877 -1.051121,0.29094 -0.54433,0.0939 -1.051121,0.0939 -0.16893,0 -0.272165,-0.009 -0.103235,-0.009 -0.122005,-0.009 z m -0.244011,2.92812 q 0,-0.22524 -0.20647,-0.36601 -0.197085,-0.15016 -0.52556,-0.23463 -0.319091,-0.0845 -0.732031,-0.12201 -0.403556,-0.0469 -0.825881,-0.0563 0.178315,0.26279 0.39417,0.46926 0.225241,0.19708 0.459866,0.33786 0.234625,0.14077 0.46925,0.21585 0.244011,0.0751 0.459866,0.0751 0.253395,0 0.3754,-0.0939 0.13139,-0.0939 0.13139,-0.22524 z"
           style="font-style:normal;font-variant:normal;font-weight:normal;font-stretch:normal;font-size:19.2205px;font-family:Parisienne;-inkscape-font-specification:'Parisienne, Normal';font-variant-ligatures:normal;font-variant-caps:normal;font-variant-numeric:normal;font-variant-east-asian:normal;fill:#ff9955;fill-opacity:1;stroke-width:0.30057"
           id="path890" />
        <path
           d="m 99.269817,134.59456 q -0.04693,0.0845 -0.122005,0.1877 -0.07508,0.0939 -0.15016,0.22524 -0.0657,0.122 -0.122005,0.29093 -0.04693,0.16893 -0.04693,0.40356 0,0.19709 0.09385,0.53495 0.103235,0.33786 0.215855,0.77895 0.11262,0.43171 0.20647,0.94789 0.103235,0.50679 0.103235,1.05112 0,0.79772 -0.215855,1.40775 -0.215855,0.61003 -0.572486,1.04174 0.732031,-0.39417 1.435904,-1.1262 0.70387,-0.74142 1.41713,-1.87701 l 0.31909,0.28155 q -0.40354,0.66634 -0.91973,1.32329 -0.50678,0.64757 -1.116807,1.17313 -0.610026,0.51617 -1.313902,0.83526 -0.703875,0.32848 -1.492216,0.32848 -0.703876,0 -1.182512,-0.33786 -0.48802,-0.32848 -0.60064,-0.99481 l 0.33786,-0.0657 q 0,0.0563 0.05631,0.1877 0.04693,0.12201 0.159545,0.24401 0.11262,0.12201 0.309706,0.21586 0.1877,0.0939 0.46925,0.0939 0.375401,0 0.666336,-0.16893 0.290935,-0.17832 0.50679,-0.45987 0.215856,-0.28155 0.366016,-0.63818 0.15016,-0.36602 0.234625,-0.7508 0.09385,-0.38479 0.13139,-0.7508 0.03754,-0.36602 0.03754,-0.66634 0,-0.30032 -0.02815,-0.66633 -0.01877,-0.36602 -0.04693,-0.69449 -0.02815,-0.33786 -0.05631,-0.58187 -0.01877,-0.2534 -0.01877,-0.32848 v -0.0188 q -0.122005,0.13139 -0.290935,0.38479 -0.16893,0.25339 -0.366016,0.55371 -0.1877,0.30032 -0.384785,0.61003 -0.1877,0.3097 -0.347245,0.5631 -0.150161,0.25339 -0.253396,0.42232 -0.09385,0.15955 -0.09385,0.16893 l -0.33786,-0.26278 q 0.0094,-0.009 0.234625,-0.40355 0.22524,-0.39417 0.591256,-0.99481 0.3754,-0.61003 0.844651,-1.34206 0.46925,-0.74142 0.966656,-1.43591 l 0.3754,0.30971 z"
           style="font-style:normal;font-variant:normal;font-weight:normal;font-stretch:normal;font-size:19.2205px;font-family:Parisienne;-inkscape-font-specification:'Parisienne, Normal';font-variant-ligatures:normal;font-variant-caps:normal;font-variant-numeric:normal;font-variant-east-asian:normal;fill:#ff9955;fill-opacity:1;stroke-width:0.30057"
           id="path892" />
        <path
           d="m 103.41799,134.21916 q 0.0939,-0.15955 0.32848,-0.55372 0.24401,-0.39417 0.5631,-0.8728 0.32847,-0.47864 0.70388,-0.95727 0.38478,-0.48802 0.7508,-0.82588 l 0.42232,0.25339 q -0.40355,0.66634 -0.82588,1.41714 -0.42232,0.74141 -0.83527,1.53914 h 3.05952 l -0.1877,0.48802 h -3.12521 q -0.42233,0.84465 -0.79773,1.67992 -0.36601,0.83526 -0.64756,1.59545 -0.28155,0.76018 -0.4411,1.42652 -0.15954,0.65695 -0.15954,1.14497 0,0.61003 0.28155,0.88219 0.28155,0.26278 0.69449,0.26278 0.36601,0 0.7508,-0.21585 0.38478,-0.22524 0.7508,-0.5631 0.3754,-0.33786 0.70388,-0.74142 0.33786,-0.40356 0.59125,-0.76019 0.26278,-0.35663 0.43171,-0.61941 0.16893,-0.27216 0.20647,-0.33786 l 0.34725,0.26278 q -0.32848,0.54433 -0.74142,1.15436 -0.41294,0.61003 -0.91973,1.13559 -0.4974,0.51617 -1.08866,0.86342 -0.59126,0.33786 -1.27636,0.33786 -0.42233,0 -0.74142,-0.15016 -0.3097,-0.15016 -0.52556,-0.41294 -0.21585,-0.27217 -0.31909,-0.63818 -0.11262,-0.36602 -0.11262,-0.79773 0,-0.28155 0.0939,-0.79773 0.0845,-0.51617 0.30032,-1.22005 0.21586,-0.71326 0.57249,-1.59545 0.36601,-0.88219 0.91973,-1.89577 h -1.55791 l 0.1877,-0.48802 z"
           style="font-style:normal;font-variant:normal;font-weight:normal;font-stretch:normal;font-size:19.2205px;font-family:Parisienne;-inkscape-font-specification:'Parisienne, Normal';font-variant-ligatures:normal;font-variant-caps:normal;font-variant-numeric:normal;font-variant-east-asian:normal;fill:#ff9955;fill-opacity:1;stroke-width:0.30057"
           id="path894" />
        <path
           d="m 107.35031,139.82201 q -0.0188,0.11262 -0.0281,0.22524 -0.009,0.11262 -0.009,0.22524 0,0.33786 0.0939,0.64757 0.10324,0.30032 0.29094,0.53494 0.19708,0.22524 0.47863,0.35663 0.29094,0.13139 0.65695,0.13139 1.22944,0 2.37441,-0.83526 1.14497,-0.83527 2.28056,-2.64658 l 0.31909,0.28155 q -0.61941,1.03235 -1.25759,1.74562 -0.63818,0.70387 -1.27636,1.14497 -0.6288,0.44109 -1.23883,0.63818 -0.61002,0.19708 -1.16374,0.19708 -0.40355,0 -0.85403,-0.11262 -0.45048,-0.11262 -0.83527,-0.3754 -0.3754,-0.26278 -0.61941,-0.70387 -0.25339,-0.4411 -0.25339,-1.09805 0,-0.70388 0.24401,-1.35144 0.23462,-0.65695 0.61941,-1.22005 0.38478,-0.5631 0.88219,-1.02297 0.4974,-0.46925 1.00419,-0.79772 0.51618,-0.32848 1.0042,-0.5068 0.48802,-0.1877 0.86342,-0.1877 0.24401,0 0.49741,0.0751 0.25339,0.0751 0.45048,0.23463 0.20647,0.15955 0.32847,0.42233 0.13139,0.26278 0.13139,0.62879 0,0.49741 -0.23462,0.9385 -0.22524,0.43171 -0.61003,0.80711 -0.38478,0.36602 -0.89158,0.66634 -0.50679,0.29093 -1.0605,0.4974 -0.55372,0.20647 -1.11682,0.32848 -0.5631,0.122 -1.06989,0.13139 z m 0.0751,-0.40356 q 0.6288,-0.0657 1.18251,-0.26278 0.55372,-0.19708 1.01358,-0.47863 0.45987,-0.29094 0.8165,-0.6288 0.36602,-0.33786 0.61003,-0.6851 0.24401,-0.34725 0.3754,-0.66634 0.13139,-0.31909 0.13139,-0.57248 0,-0.2534 -0.14078,-0.40356 -0.13139,-0.15016 -0.31909,-0.15016 -0.41294,0 -0.92912,0.30032 -0.51617,0.29094 -1.03235,0.8165 -0.51617,0.51617 -0.97604,1.22005 -0.45048,0.70387 -0.73203,1.51098 z"
           style="font-style:normal;font-variant:normal;font-weight:normal;font-stretch:normal;font-size:19.2205px;font-family:Parisienne;-inkscape-font-specification:'Parisienne, Normal';font-variant-ligatures:normal;font-variant-caps:normal;font-variant-numeric:normal;font-variant-east-asian:normal;fill:#ff9955;fill-opacity:1;stroke-width:0.30057"
           id="path896" />
        <path
           d="m 120.28286,128.3066 q 0.32847,0 0.54433,0.15955 0.22524,0.15954 0.22524,0.58187 0,0.29093 -0.12201,0.69449 -0.11262,0.40355 -0.31909,0.88219 -0.19708,0.46925 -0.46925,0.99481 -0.27216,0.51618 -0.59125,1.03235 -0.30971,0.51618 -0.65695,1.0042 -0.33786,0.48802 -0.67573,0.90096 -0.67572,0.83526 -1.17312,1.40775 -0.48802,0.57249 -0.84465,0.97604 -0.35663,0.39417 -0.60064,0.64757 -0.24401,0.24401 -0.43171,0.42232 -0.1877,0.17832 -0.34725,0.32848 -0.15954,0.14077 -0.32847,0.31909 -0.0751,0.35663 -0.0751,0.6851 0.009,0.31909 0.009,0.59126 0,0.8165 0.26278,1.21067 0.26278,0.39417 0.74142,0.39417 0.31909,0 0.63818,-0.15955 0.32847,-0.16893 0.64756,-0.43171 0.31909,-0.26278 0.61941,-0.59125 0.30032,-0.33787 0.5631,-0.67573 0.27217,-0.34724 0.48802,-0.66633 0.21586,-0.31909 0.37541,-0.55372 l 0.34724,0.26278 q -0.0281,0.0375 -0.1877,0.30032 -0.15016,0.2534 -0.40355,0.61941 -0.2534,0.36602 -0.60065,0.78835 -0.34724,0.41294 -0.7508,0.76957 -0.40355,0.35663 -0.85403,0.59125 -0.4411,0.23463 -0.90096,0.23463 -0.38479,0 -0.74142,-0.14078 -0.34724,-0.15016 -0.61941,-0.45986 -0.26278,-0.31909 -0.43171,-0.80711 -0.15955,-0.48803 -0.15955,-1.17313 0,-0.85404 0.19709,-1.78315 0.20647,-0.9385 0.55372,-1.877 0.34724,-0.94789 0.81649,-1.86762 0.46925,-0.91973 0.99481,-1.74561 0.53495,-0.83527 1.10743,-1.53915 0.58187,-0.71326 1.13559,-1.22943 0.5631,-0.51618 1.07928,-0.80711 0.51617,-0.29094 0.9385,-0.29094 z m -5.62162,9.5164 q 0.79772,-0.82588 1.53914,-1.67053 0.7508,-0.85404 1.39836,-1.67992 0.65695,-0.83526 1.20129,-1.61422 0.54433,-0.78834 0.92911,-1.48283 0.38479,-0.69449 0.60064,-1.26698 0.21586,-0.57248 0.21586,-0.98542 0,-0.0751 -0.0751,-0.19709 -0.0751,-0.13139 -0.17832,-0.13139 -0.29093,0 -0.76957,0.38479 -0.47863,0.38478 -1.04173,1.05112 -0.55372,0.65695 -1.15436,1.53914 -0.59126,0.88219 -1.11682,1.88639 -0.52556,1.00419 -0.9385,2.07409 -0.41294,1.06989 -0.61002,2.09285 z"
           style="font-style:normal;font-variant:normal;font-weight:normal;font-stretch:normal;font-size:19.2205px;font-family:Parisienne;-inkscape-font-specification:'Parisienne, Normal';font-variant-ligatures:normal;font-variant-caps:normal;font-variant-numeric:normal;font-variant-east-asian:normal;fill:#ff9955;fill-opacity:1;stroke-width:0.30057"
           id="path898" />
        <path
           d="m 125.55723,128.3066 q 0.32848,0 0.54433,0.15955 0.22524,0.15954 0.22524,0.58187 0,0.29093 -0.122,0.69449 -0.11262,0.40355 -0.31909,0.88219 -0.19709,0.46925 -0.46925,0.99481 -0.27217,0.51618 -0.59126,1.03235 -0.3097,0.51618 -0.65695,1.0042 -0.33786,0.48802 -0.67572,0.90096 -0.67572,0.83526 -1.17313,1.40775 -0.48802,0.57249 -0.84465,0.97604 -0.35663,0.39417 -0.60064,0.64757 -0.24401,0.24401 -0.43171,0.42232 -0.1877,0.17832 -0.34724,0.32848 -0.15955,0.14077 -0.32848,0.31909 -0.0751,0.35663 -0.0751,0.6851 0.009,0.31909 0.009,0.59126 0,0.8165 0.26278,1.21067 0.26278,0.39417 0.74141,0.39417 0.31909,0 0.63818,-0.15955 0.32848,-0.16893 0.64757,-0.43171 0.31909,-0.26278 0.61941,-0.59125 0.30032,-0.33787 0.5631,-0.67573 0.27217,-0.34724 0.48802,-0.66633 0.21586,-0.31909 0.3754,-0.55372 l 0.34725,0.26278 q -0.0282,0.0375 -0.1877,0.30032 -0.15016,0.2534 -0.40356,0.61941 -0.25339,0.36602 -0.60064,0.78835 -0.34725,0.41294 -0.7508,0.76957 -0.40356,0.35663 -0.85404,0.59125 -0.44109,0.23463 -0.90096,0.23463 -0.38478,0 -0.74141,-0.14078 -0.34725,-0.15016 -0.61941,-0.45986 -0.26278,-0.31909 -0.43171,-0.80711 -0.15955,-0.48803 -0.15955,-1.17313 0,-0.85404 0.19709,-1.78315 0.20647,-0.9385 0.55371,-1.877 0.34725,-0.94789 0.8165,-1.86762 0.46925,-0.91973 0.99481,-1.74561 0.53494,-0.83527 1.10743,-1.53915 0.58187,-0.71326 1.13559,-1.22943 0.5631,-0.51618 1.07927,-0.80711 0.51618,-0.29094 0.9385,-0.29094 z m -5.62162,9.5164 q 0.79773,-0.82588 1.53914,-1.67053 0.7508,-0.85404 1.39837,-1.67992 0.65695,-0.83526 1.20128,-1.61422 0.54433,-0.78834 0.92912,-1.48283 0.38478,-0.69449 0.60064,-1.26698 0.21585,-0.57248 0.21585,-0.98542 0,-0.0751 -0.0751,-0.19709 -0.0751,-0.13139 -0.17831,-0.13139 -0.29094,0 -0.76957,0.38479 -0.47864,0.38478 -1.04174,1.05112 -0.55371,0.65695 -1.15436,1.53914 -0.59125,0.88219 -1.11681,1.88639 -0.52556,1.00419 -0.9385,2.07409 -0.41294,1.06989 -0.61003,2.09285 z"
           style="font-style:normal;font-variant:normal;font-weight:normal;font-stretch:normal;font-size:19.2205px;font-family:Parisienne;-inkscape-font-specification:'Parisienne, Normal';font-variant-ligatures:normal;font-variant-caps:normal;font-variant-numeric:normal;font-variant-east-asian:normal;fill:#ff9955;fill-opacity:1;stroke-width:0.30057"
           id="path900" />
        <path
           d="m 124.75012,139.82201 q -0.0188,0.11262 -0.0281,0.22524 -0.009,0.11262 -0.009,0.22524 0,0.33786 0.0939,0.64757 0.10324,0.30032 0.29094,0.53494 0.19708,0.22524 0.47863,0.35663 0.29094,0.13139 0.65695,0.13139 1.22944,0 2.37441,-0.83526 1.14497,-0.83527 2.28056,-2.64658 l 0.31909,0.28155 q -0.61941,1.03235 -1.25759,1.74562 -0.63818,0.70387 -1.27636,1.14497 -0.6288,0.44109 -1.23882,0.63818 -0.61003,0.19708 -1.16375,0.19708 -0.40355,0 -0.85403,-0.11262 -0.45048,-0.11262 -0.83527,-0.3754 -0.3754,-0.26278 -0.61941,-0.70387 -0.25339,-0.4411 -0.25339,-1.09805 0,-0.70388 0.24401,-1.35144 0.23462,-0.65695 0.61941,-1.22005 0.38478,-0.5631 0.88219,-1.02297 0.4974,-0.46925 1.00419,-0.79772 0.51618,-0.32848 1.0042,-0.5068 0.48802,-0.1877 0.86342,-0.1877 0.24401,0 0.49741,0.0751 0.25339,0.0751 0.45048,0.23463 0.20647,0.15955 0.32847,0.42233 0.13139,0.26278 0.13139,0.62879 0,0.49741 -0.23462,0.9385 -0.22524,0.43171 -0.61003,0.80711 -0.38478,0.36602 -0.89157,0.66634 -0.50679,0.29093 -1.06051,0.4974 -0.55372,0.20647 -1.11682,0.32848 -0.5631,0.122 -1.06989,0.13139 z m 0.0751,-0.40356 q 0.6288,-0.0657 1.18251,-0.26278 0.55372,-0.19708 1.01358,-0.47863 0.45987,-0.29094 0.8165,-0.6288 0.36602,-0.33786 0.61003,-0.6851 0.24401,-0.34725 0.3754,-0.66634 0.13139,-0.31909 0.13139,-0.57248 0,-0.2534 -0.14078,-0.40356 -0.13139,-0.15016 -0.31909,-0.15016 -0.41294,0 -0.92911,0.30032 -0.51618,0.29094 -1.03236,0.8165 -0.51617,0.51617 -0.97604,1.22005 -0.45048,0.70387 -0.73203,1.51098 z"
           style="font-style:normal;font-variant:normal;font-weight:normal;font-stretch:normal;font-size:19.2205px;font-family:Parisienne;-inkscape-font-specification:'Parisienne, Normal';font-variant-ligatures:normal;font-variant-caps:normal;font-variant-numeric:normal;font-variant-east-asian:normal;fill:#ff9955;fill-opacity:1;stroke-width:0.30057"
           id="path902" />
      </g>
    </g>
  </g>
</svg>
